External Loads File
version=1
nRows=31
nColumns=13
Range=5.000000e-03-10 seconds
endheader
time 	forceRightX 	forceRightY 	forceRightZ 	pointRightX 	pointRightY 	pointRightZ 	forceLeftX 	forceLeftY 	forceLeftZ 	pointLeftX 	pointLeftY 	pointLeftZ 		
7.505000 -179.468421 -243.001594 -0.000000 0.078666 0.242972 -0.119821 -67.710426 362.076072 -0.000000 0.365029 0.350699 -0.365719
7.510000 -185.601989 -224.604686 -0.000000 0.077373 0.252579 -0.119852 -76.324884 379.242077 -0.000000 0.366233 0.339791 -0.365835
7.515000 -182.524170 -200.084323 -0.000000 0.076514 0.262632 -0.119771 -83.359603 396.157623 -0.000000 0.366906 0.328820 -0.366016
7.520000 -171.509910 -172.473492 -0.000000 0.076094 0.273428 -0.119602 -88.153131 413.644753 -0.000000 0.367080 0.317759 -0.366174
7.525000 -154.167943 -145.123031 -0.000000 0.076171 0.284425 -0.119628 -91.496503 432.284881 -0.000000 0.366576 0.306797 -0.365409
7.530000 -133.083845 -120.081048 -0.000000 0.076907 0.295510 -0.119655 -93.189815 452.770746 -0.000000 0.365351 0.295873 -0.365375
7.535000 -110.737466 -98.352018 -0.000000 0.078303 0.306882 -0.119797 -92.704806 475.661561 -0.000000 0.363694 0.285101 -0.365062
7.540000 -88.895014 -80.329503 -0.000000 0.080406 0.318140 -0.120081 -90.182920 501.176111 -0.000000 0.361273 0.274450 -0.364778
7.545000 -68.849657 -65.706629 -0.000000 0.083098 0.329385 -0.120316 -84.888836 529.527954 -0.000000 0.358162 0.263846 -0.364578
7.550000 -51.158405 -54.109579 -0.000000 0.086549 0.340293 -0.120655 -77.086679 560.595877 -0.000000 0.354338 0.253415 -0.364358
7.555000 -36.084698 -44.998020 -0.000000 0.090372 0.351082 -0.120891 -66.265469 594.205254 -0.000000 0.349894 0.243175 -0.364103
7.560000 -23.605876 -37.949982 -0.000000 0.094869 0.361583 -0.121109 -52.488484 629.874811 -0.000000 0.344752 0.233301 -0.363983
7.565000 -13.631698 -32.563178 -0.000000 0.099918 0.371842 -0.121370 -35.332254 666.964936 -0.000000 0.338998 0.223704 -0.363976
7.570000 -6.008429 -28.448322 -0.000000 0.105620 0.381886 -0.121587 -14.835472 704.660690 -0.000000 0.332554 0.214650 -0.363682
7.575000 -0.570910 -25.143162 -0.000000 0.111786 0.391431 -0.121801 8.425451 742.115756 -0.000000 0.325615 0.205898 -0.363456
7.580000 2.861837 -22.088610 -0.000000 0.118508 0.400566 -0.122047 34.127461 778.522383 -0.000000 0.318190 0.197647 -0.363200
7.585000 4.567218 -18.704097 -0.000000 0.125702 0.409188 -0.122314 61.502361 813.079061 -0.000000 0.310282 0.189987 -0.362976
7.590000 4.853425 -14.524766 -0.000000 0.133602 0.417383 -0.122505 91.063238 844.816306 -0.000000 0.301998 0.182787 -0.362610
7.595000 4.070616 -9.280123 -0.000000 0.141476 0.424754 -0.122960 120.369289 872.984239 -0.000000 0.293250 0.176062 -0.362199
7.600000 2.425726 -2.945607 -0.000000 0.150477 0.431512 -0.122973 151.906209 896.213906 -0.000000 0.284243 0.169855 -0.361962
7.605000 0.075135 4.373099 -0.000000 0.159412 0.437550 -0.123459 181.254817 914.113983 -0.000000 0.275270 0.164244 -0.363115
7.610000 -2.937490 12.463852 -0.000000 0.169278 0.442843 -0.123253 213.331267 924.591729 -0.000000 0.265549 0.159157 -0.361681
7.615000 -6.584250 21.080807 -0.000000 0.178710 0.447661 -0.123761 246.863387 926.529724 -0.000000 0.254248 0.154600 -0.353625
7.620000 -11.207961 29.819471 -0.000000 0.189375 0.451771 -0.123598 270.121692 922.143168 -0.000000 0.246299 0.150721 -0.361744
7.625000 -16.692266 38.432490 -0.000000 0.198682 0.455190 -0.124213 291.590499 908.606161 -0.000000 0.236498 0.147330 -0.361689
7.630000 -22.866916 46.809086 -0.000000 0.209025 0.458161 -0.124301 311.927176 884.984825 -0.000000 0.226693 0.144524 -0.361697
7.635000 -29.602131 54.914962 -0.000000 0.219484 0.460506 -0.124510 327.737419 851.982254 -0.000000 0.216890 0.142555 -0.361730
7.640000 -36.559764 62.827839 -0.000000 0.229792 0.462072 -0.124715 337.901842 810.111595 -0.000000 0.207112 0.141177 -0.361754
7.645000 -43.645439 70.351892 -0.000000 0.239623 0.462696 -0.124654 337.990967 761.995398 -0.000000 0.198918 0.140442 -0.359221
7.650000 -49.577961 77.838309 -0.000000 0.249690 0.462774 -0.124519 337.114249 704.841146 -0.000000 0.189288 0.140540 -0.359163
7.655000 -54.248843 84.851090 -0.000000 0.259710 0.462060 -0.124403 331.032394 641.892627 -0.000000 0.179763 0.141383 -0.359114
